<svg id="visual" viewBox="0 0 960 540" width="960" height="540" xmlns="http://www.w3.org/2000/svg" xmlns:xlink="http://www.w3.org/1999/xlink" version="1.1"><path d="M0 66L107 66L107 55L213 55L213 66L320 66L320 98L427 98L427 50L533 50L533 71L640 71L640 77L747 77L747 66L853 66L853 55L960 55L960 50L960 0L960 0L853 0L853 0L747 0L747 0L640 0L640 0L533 0L533 0L427 0L427 0L320 0L320 0L213 0L213 0L107 0L107 0L0 0Z" fill="#f8fafc"></path><path d="M0 222L107 222L107 158L213 158L213 255L320 255L320 255L427 255L427 201L533 201L533 233L640 233L640 217L747 217L747 168L853 168L853 249L960 249L960 195L960 48L960 53L853 53L853 64L747 64L747 75L640 75L640 69L533 69L533 48L427 48L427 96L320 96L320 64L213 64L213 53L107 53L107 64L0 64Z" fill="#f0f6fc"></path><path d="M0 401L107 401L107 352L213 352L213 357L320 357L320 374L427 374L427 352L533 352L533 363L640 363L640 401L747 401L747 336L853 336L853 374L960 374L960 357L960 193L960 247L853 247L853 166L747 166L747 215L640 215L640 231L533 231L533 199L427 199L427 253L320 253L320 253L213 253L213 156L107 156L107 220L0 220Z" fill="#e9f2fd"></path><path d="M0 498L107 498L107 503L213 503L213 498L320 498L320 460L427 460L427 471L533 471L533 492L640 492L640 503L747 503L747 465L853 465L853 492L960 492L960 503L960 355L960 372L853 372L853 334L747 334L747 399L640 399L640 361L533 361L533 350L427 350L427 372L320 372L320 355L213 355L213 350L107 350L107 399L0 399Z" fill="#e2eefd"></path><path d="M0 541L107 541L107 541L213 541L213 541L320 541L320 541L427 541L427 541L533 541L533 541L640 541L640 541L747 541L747 541L853 541L853 541L960 541L960 541L960 501L960 490L853 490L853 463L747 463L747 501L640 501L640 490L533 490L533 469L427 469L427 458L320 458L320 496L213 496L213 501L107 501L107 496L0 496Z" fill="#dbeafe"></path></svg>